PathFileType	4	(X/Y/Z)	C:\Users\Biomechanik\SynologyDrive\AlexP\Athlete_03\Athlete_3_22_07_06\sq_90_EMG\marker_experimental.trc																																																																																																																																																																															
DataRate	CameraRate	NumFrames	NumMarkers	Units	OrigDataRate	OrigDataStartFrame	OrigNumFrames																																																																																																																																																																											
200	200	4	59	mm	200	173	1384																																																																																																																																																																											
Frame#	Time	BL			BR			GLAB			RFHD			LFHD			C7			T6			SPINMOL			SPINM2			SPINM3			T12			BELTOL			BELT2			BELT3			SACROL			SACR2			SACR3			LTHOL			LTH2			LTH3			LSHAOL			LSHA2			LSHA3			LHEE			LTOE			LM5			RTHOL			RTH2			RTH3			RSHAOL			RSHA2			RSHA3			RHEE			RTOE			RM5			STRN			XIPH			LACR			LUAOL			LUA2			LUA3			LLAOL			LLA2			LLA3			LWRU			RACR			RUAOL			RUA3			RLAOL			RLA2			RLA3			RWRU			RUA2			USERMO0			USERMO1			USERMO2			USERMO3			USERMO4			USERMO5		
		X1	Y1	Z1	X2	Y2	Z2	X3	Y3	Z3	X4	Y4	Z4	X5	Y5	Z5	X6	Y6	Z6	X7	Y7	Z7	X8	Y8	Z8	X9	Y9	Z9	X10	Y10	Z10	X11	Y11	Z11	X12	Y12	Z12	X13	Y13	Z13	X14	Y14	Z14	X15	Y15	Z15	X16	Y16	Z16	X17	Y17	Z17	X18	Y18	Z18	X19	Y19	Z19	X20	Y20	Z20	X21	Y21	Z21	X22	Y22	Z22	X23	Y23	Z23	X24	Y24	Z24	X25	Y25	Z25	X26	Y26	Z26	X27	Y27	Z27	X28	Y28	Z28	X29	Y29	Z29	X30	Y30	Z30	X31	Y31	Z31	X32	Y32	Z32	X33	Y33	Z33	X34	Y34	Z34	X35	Y35	Z35	X36	Y36	Z36	X37	Y37	Z37	X38	Y38	Z38	X39	Y39	Z39	X40	Y40	Z40	X41	Y41	Z41	X42	Y42	Z42	X43	Y43	Z43	X44	Y44	Z44	X45	Y45	Z45	X46	Y46	Z46	X47	Y47	Z47	X48	Y48	Z48	X49	Y49	Z49	X50	Y50	Z50	X51	Y51	Z51	X52	Y52	Z52	X53	Y53	Z53	X54	Y54	Z54	X55	Y55	Z55	X56	Y56	Z56	X57	Y57	Z57	X58	Y58	Z58	X59	Y59	Z59
																																																																																																																																																																																		
174	0.865	132.8381958	1222.618896	-2306.231201	171.779953	1303.9552	-86.04580688	527.6182861	1399.886108	-1187.170166	470.7352905	1430.010376	-1113.312988	472.9220581	1427.471069	-1267.380249	263.114624	1369.893066	-1189.311523	101.9594269	1247.138184	-1193.325439	79.85816956	1219.68335	-1196.288086	42.69592667	1167.679199	-1148.248657	54.5063858	1163.203491	-1196.504028	36.05575943	1108.871094	-1192.804321	-0.367658883	1071.85022	-1191.540771	-14.41607857	1013.977295	-1138.384888	-18.10962486	1012.310913	-1188.387695	-23.52161217	935.3361206	-1213.585815	-15.40330696	945.5111694	-1163.824951	-46.46193695	887.7932129	-1173.621582	104.0078278	726.7409668	-1436.530273	64.91004944	657.3078003	-1429.187256	110.3345566	666.300354	-1449.141235	88.51694489	327.0090027	-1531.963013	56.91986084	254.6208496	-1535.340942	102.7562866	268.7980652	-1548.590942	58.49194336	37.36169815	-1517.354248	263.1113281	48.52873611	-1558.645142	206.4704285	23.78367805	-1657.113647	70.53869629	698.3554688	-937.229248	108.2233658	636.796814	-902.3169556	64.14974976	636.9622192	-926.9034424	37.35635757	315.2919312	-851.8330078	82.89749908	259.9424744	-817.5551147	40.89166641	254.308197	-844.3847656	47.18782043	34.39818573	-874.9316406	240.8452759	44.5303688	-793.5183105	170.0312805	37.40240479	-710.2584839	341.4007568	1218.647217	-1194.714355	308.5769348	1070.055054	-1183.296143	215.8256073	1310.326904	-1373.794922	80.81717682	1226.651611	-1396.122437	45.97530365	1188.247681	-1355.830811	44.02112579	1184.268677	-1406.452515	30.6881237	1147.181396	-1482.875366	75.84378052	1159.44043	-1528.122314	74.78240967	1192.908691	-1490.613647	125.6349411	1233.072144	-1543.386475	236.772934	1318.483276	-1010.46637	104.9679794	1223.605469	-967.7490845	44.01668549	1204.258789	-975.0651855	52.39693451	1188.569824	-893.0057983	102.2888184	1229.218506	-899.6416626	93.81539917	1212.861816	-851.6433105	128.9401093	1246.223755	-829.0040283	nan	nan	nan	0.0469115	0.00887388	-0.057863802	0.01109	0.063875802	-0.053488199	0.0269404	0.069554701	-0.0286081	0.075624697	0.202114999	-0.800839007	0.344361007	2.639659882	-0.283800989	2.879149914	0	0
175	0.87	132.8821564	1222.709351	-2306.233398	171.7109528	1303.742676	-86.03771973	527.5827026	1399.996948	-1187.065308	470.6687317	1430.062012	-1113.207153	472.875061	1427.574219	-1267.27417	263.0908203	1369.88147	-1189.258789	101.9519882	1247.138062	-1193.322998	79.85470581	1219.6875	-1196.271362	42.68395233	1167.682983	-1148.238647	54.50322342	1163.20752	-1196.491821	36.05493927	1108.869873	-1192.797729	-0.375710517	1071.843384	-1191.549805	-14.41825676	1013.953186	-1138.410278	-18.11211395	1012.300781	-1188.413696	-23.51492882	935.3237305	-1213.625122	-15.38020992	945.4855957	-1163.860107	-46.43845367	887.7715454	-1173.667114	104.0176926	726.7646484	-1436.592896	64.9188385	657.3349609	-1429.244873	110.3484726	666.3136597	-1449.189331	88.51157379	327.0139465	-1532.023804	56.9132309	254.6237183	-1535.388184	102.7495956	268.7999878	-1548.643066	58.49420929	37.36229706	-1517.357178	263.1083069	48.53020477	-1558.654541	206.4675903	23.77364349	-1657.12085	70.58844757	698.3327637	-937.284729	108.2675858	636.7785034	-902.3692627	64.19859314	636.9453125	-926.9558105	37.38510895	315.2950745	-851.8579102	82.92333221	259.9433594	-817.5800781	40.91249466	254.3169403	-844.4001465	47.19099808	34.39877701	-874.9368286	240.8470306	44.52643585	-793.5201416	170.0315704	37.40190125	-710.2606201	341.3924255	1218.618164	-1194.670044	308.5122375	1070.035522	-1183.311523	215.8364105	1310.320557	-1373.759644	80.82236481	1226.656494	-1396.093018	45.97633362	1188.247559	-1355.812866	44.02754593	1184.276245	-1406.435791	30.68224335	1147.200562	-1482.865356	75.83110046	1159.457031	-1528.119995	74.77857971	1192.92334	-1490.610352	125.5799103	1233.10083	-1543.392212	236.7282257	1318.470459	-1010.435608	104.9141006	1223.57959	-967.7571411	43.98318863	1204.251465	-975.0704956	52.34051132	1188.536987	-893.0404053	102.2407532	1229.178345	-899.6612549	93.75814056	1212.811279	-851.6705322	128.8952942	1246.158936	-829.0152588	nan	nan	nan	0.047184501	0.00890658	-0.058621999	0.0110637	0.063454397	-0.053772401	0.027162399	0.070659898	-0.0285955	0.075732999	0.202068001	-0.805607975	0.343306988	2.6536901	-0.283659011	2.878989935	0	0
176	0.875	132.9263611	1222.802002	-2306.236816	171.6432037	1303.532349	-86.03047943	527.5490112	1400.099121	-1186.957397	470.6034851	1430.106567	-1113.099731	472.8323364	1427.669556	-1267.166138	263.0674744	1369.867676	-1189.207275	101.9427338	1247.13855	-1193.321533	79.84888458	1219.691162	-1196.255615	42.66943359	1167.6875	-1148.228882	54.4978714	1163.211182	-1196.47937	36.05152893	1108.867676	-1192.790771	-0.386452019	1071.834961	-1191.558472	-14.42297363	1013.927612	-1138.435181	-18.11717033	1012.289124	-1188.439575	-23.50458908	935.3046875	-1213.660034	-15.35988998	945.456604	-1163.894409	-46.4163475	887.7454224	-1173.711182	104.0217285	726.7872314	-1436.652832	64.91925812	657.3609009	-1429.300659	110.3571243	666.3265381	-1449.234619	88.50299835	327.0183105	-1532.083984	56.90399551	254.6256409	-1535.435181	102.7403488	268.8016663	-1548.695435	58.49694443	37.36279297	-1517.360107	263.1053467	48.53178024	-1558.66394	206.4647522	23.76343536	-1657.128296	70.6465683	698.3084717	-937.3396606	108.3215485	636.7583618	-902.4266968	64.25221252	636.928772	-927.0047607	37.42064285	315.2997437	-851.8800659	82.95617676	259.9440613	-817.6048584	40.93973541	254.326004	-844.4143677	47.1948967	34.39966965	-874.9423218	240.8493195	44.52185822	-793.5224609	170.0323334	37.40171051	-710.2634277	341.3814087	1218.585327	-1194.626709	308.4392395	1070.012451	-1183.328491	215.8476868	1310.313477	-1373.725342	80.82646942	1226.664917	-1396.063354	45.97549438	1188.251221	-1355.795288	44.03117371	1184.288574	-1406.419678	30.6734848	1147.223511	-1482.856812	75.8151474	1159.476807	-1528.11853	74.77225494	1192.941528	-1490.608154	125.5271606	1233.128296	-1543.399292	236.6833801	1318.458008	-1010.405273	104.8597641	1223.553223	-967.7628174	43.96776581	1204.24585	-975.0581055	52.28430557	1188.503418	-893.0726318	102.1928101	1229.137817	-899.6799316	93.70114899	1212.76123	-851.6964722	128.8507385	1246.095459	-829.0263672	nan	nan	nan	0.047226101	0.00890359	-0.059514102	0.0110474	0.063208804	-0.0541174	0.027579401	0.071372703	-0.028852399	0.075844899	0.201754004	-0.809476972	0.343084991	2.671869993	-0.284720004	2.878819942	0	0
177	0.88	132.9704742	1222.896729	-2306.241455	171.5761261	1303.324707	-86.02405548	527.517395	1400.192261	-1186.847412	470.5404053	1430.144165	-1112.991333	472.7939758	1427.756836	-1267.056763	263.0453186	1369.851685	-1189.156494	101.9321442	1247.139771	-1193.320557	79.84113312	1219.694702	-1196.239868	42.65296173	1167.692627	-1148.218506	54.49065018	1163.214722	-1196.466064	36.04594803	1108.864624	-1192.782959	-0.399585515	1071.825317	-1191.565918	-14.42991829	1013.900818	-1138.459106	-18.12465286	1012.276184	-1188.464355	-23.49028397	935.2791138	-1213.690186	-15.3426075	945.4243774	-1163.927612	-46.39567947	887.7148438	-1173.753052	104.0195847	726.8085327	-1436.709839	64.91127014	657.385437	-1429.354736	110.3598709	666.3391724	-1449.27771	88.49167633	327.0221252	-1532.143555	56.89258194	254.6266632	-1535.481567	102.7289734	268.8031921	-1548.747803	58.50012207	37.3631897	-1517.362793	263.1025085	48.53347397	-1558.67334	206.4619904	23.75321007	-1657.135742	70.71215057	698.2836914	-937.3933716	108.3852768	636.7363892	-902.489502	64.31006622	636.9127808	-927.0494995	37.462677	315.3058472	-851.8989868	82.99581146	259.9445801	-817.6289063	40.97322083	254.3354034	-844.427063	47.19946671	34.40081787	-874.947998	240.8520813	44.51669693	-793.5252686	170.0335693	37.40184784	-710.2669067	341.368103	1218.548706	-1194.584595	308.3590088	1069.985962	-1183.347412	215.8596802	1310.305542	-1373.692017	80.82865143	1226.678467	-1396.032593	45.97197723	1188.26062	-1355.776855	44.03078842	1184.307495	-1406.402588	30.65987206	1147.252563	-1482.848877	75.79414368	1159.501099	-1528.11731	74.76232147	1192.964722	-1490.606323	125.4777985	1233.154297	-1543.407227	236.6389008	1318.445923	-1010.375305	104.8067474	1223.526367	-967.7664185	43.96856308	1204.240845	-975.0306396	52.22959518	1188.468506	-893.1022949	102.1460724	1229.096802	-899.6975098	93.64558411	1212.71167	-851.72052	128.8072662	1246.033081	-829.0371704	nan	nan	nan	0.047081899	0.00887019	-0.0604496	0.0110269	0.0631584	-0.054513901	0.028179999	0.071673296	-0.0293552	0.0759243	0.201201007	-0.812403023	0.343672991	2.693069935	-0.286769986	2.878629923	0	0
